<?xml version="1.0" encoding="UTF-8" standalone="no"?>
<!-- Created with Inkscape (http://www.inkscape.org/) -->

<svg
   width="180"
   height="300"
   viewBox="0 0 47.624998 79.375002"
   version="1.1"
   id="svg5"
   inkscape:version="1.1.2 (0a00cf5339, 2022-02-04)"
   sodipodi:docname="canyon.svg"
   xmlns:inkscape="http://www.inkscape.org/namespaces/inkscape"
   xmlns:sodipodi="http://sodipodi.sourceforge.net/DTD/sodipodi-0.dtd"
   xmlns="http://www.w3.org/2000/svg"
   xmlns:svg="http://www.w3.org/2000/svg">
  <sodipodi:namedview
     id="namedview7"
     pagecolor="#ffffff"
     bordercolor="#666666"
     borderopacity="1.0"
     inkscape:pageshadow="2"
     inkscape:pageopacity="0.0"
     inkscape:pagecheckerboard="0"
     inkscape:document-units="mm"
     showgrid="false"
     units="px"
     height="300px"
     inkscape:zoom="2"
     inkscape:cx="-88"
     inkscape:cy="194.5"
     inkscape:window-width="1920"
     inkscape:window-height="959"
     inkscape:window-x="0"
     inkscape:window-y="0"
     inkscape:window-maximized="1"
     inkscape:current-layer="g850" />
  <defs
     id="defs2" />
  <g
     inkscape:groupmode="layer"
     id="layer4"
     inkscape:label="drawL"
     style="display:none"
     sodipodi:insensitive="true">
    <path
       style="fill:none;stroke:#000000;stroke-width:0.264583px;stroke-linecap:butt;stroke-linejoin:miter;stroke-opacity:1"
       d="m 54.907283,0.38706853 c 0.912145,0.80268307 1.417986,1.68495927 1.973418,2.79062327 0.07323,0.145774 0.09856,0.311437 0.134451,0.470574 0.0092,0.04081 -0.04184,0.125521 0,0.125521 0.04184,0 -0.04184,-0.125521 0,-0.125521 0.0461,0 0.03102,0.08817 0.05803,0.125521 0.150394,0.207945 0.318486,0.402569 0.472413,0.607914 0.158089,0.210899 0.379706,0.370505 0.514165,0.639424 0.347932,0.695865 0.58592,1.585096 0.739473,2.352873"
       id="path47" />
    <path
       style="fill:none;stroke:#000000;stroke-width:0.264583px;stroke-linecap:butt;stroke-linejoin:miter;stroke-opacity:1"
       d="m 55.398339,11.491263 c 0.21962,-0.109853 0.439237,-0.219707 0.658857,-0.32956"
       id="path49" />
    <path
       style="fill:none;stroke:#000000;stroke-width:0.264583px;stroke-linecap:butt;stroke-linejoin:miter;stroke-opacity:1"
       d="m 55.928786,16.199897 5.924722,-2.577131"
       id="path51" />
    <path
       style="fill:#555152;fill-opacity:1;stroke:#000000;stroke-width:0.264583px;stroke-linecap:butt;stroke-linejoin:miter;stroke-opacity:1"
       d="M 65.087134,20.395679 69.159233,31.446041 54.290442,34.563859 49.874866,21.640128 Z"
       id="path86" />
    <g
       id="g1493"
       inkscape:export-filename="/home/z/devel/lato/art/inkscape/g1493.png"
       inkscape:export-xdpi="164.28603"
       inkscape:export-ydpi="164.28603">
      <path
         style="fill:#555152;fill-opacity:1;stroke:none;stroke-width:0.264583px;stroke-linecap:butt;stroke-linejoin:miter;stroke-opacity:1"
         d="M 27.918568,0.09374728 29.704495,13.9497 l -2.859685,6.362998 7.643421,1.744435 -2.121525,1.45584 -0.273888,1.648324 -3.365447,8.206693 6.297085,15.214108 6.435739,6.384007 -1.90626,24.225634 L 6.256119,79.046552 16.306774,66.80741 18.838739,52.85692 6.9680224,43.481405 11.875443,35.167308 8.6838339,26.729528 19.170924,9.8032868 23.381149,8.6313146 Z"
         id="path33609"
         sodipodi:nodetypes="ccccccccccccccccccc" />
      <path
         style="fill:#ffffff;fill-opacity:1;stroke:none;stroke-width:0.264583px;stroke-linecap:butt;stroke-linejoin:miter;stroke-opacity:1"
         d="m 29.704495,13.9497 -2.859685,6.362998 c 0,0 8.795438,2.576343 9.179091,2.031716 C 36.407555,21.799787 29.704495,13.9497 29.704495,13.9497 Z"
         id="path33773" />
      <path
         style="fill:#ffffff;fill-opacity:1;stroke:none;stroke-width:0.264583px;stroke-linecap:butt;stroke-linejoin:miter;stroke-opacity:1"
         d="m 35.024456,48.582098 6.507701,6.330886 -6.335438,3.997857 z"
         id="path33775"
         sodipodi:nodetypes="cccc" />
    </g>
  </g>
  <g
     inkscape:groupmode="layer"
     id="g850"
     inkscape:label="drawL wide"
     style="display:inline">
    <path
       style="fill:none;stroke:#000000;stroke-width:0.264583px;stroke-linecap:butt;stroke-linejoin:miter;stroke-opacity:1"
       d="m 54.907283,0.38706853 c 0.912145,0.80268307 1.417986,1.68495927 1.973418,2.79062327 0.07323,0.145774 0.09856,0.311437 0.134451,0.470574 0.0092,0.04081 -0.04184,0.125521 0,0.125521 0.04184,0 -0.04184,-0.125521 0,-0.125521 0.0461,0 0.03102,0.08817 0.05803,0.125521 0.150394,0.207945 0.318486,0.402569 0.472413,0.607914 0.158089,0.210899 0.379706,0.370505 0.514165,0.639424 0.347932,0.695865 0.58592,1.585096 0.739473,2.352873"
       id="path834" />
    <path
       style="fill:none;stroke:#000000;stroke-width:0.264583px;stroke-linecap:butt;stroke-linejoin:miter;stroke-opacity:1"
       d="m 55.398339,11.491263 c 0.21962,-0.109853 0.439237,-0.219707 0.658857,-0.32956"
       id="path836" />
    <path
       style="fill:none;stroke:#000000;stroke-width:0.264583px;stroke-linecap:butt;stroke-linejoin:miter;stroke-opacity:1"
       d="m 55.928786,16.199897 5.924722,-2.577131"
       id="path838" />
    <path
       style="fill:#555152;fill-opacity:1;stroke:#000000;stroke-width:0.264583px;stroke-linecap:butt;stroke-linejoin:miter;stroke-opacity:1"
       d="M 65.087134,20.395679 69.159233,31.446041 54.290442,34.563859 49.874866,21.640128 Z"
       id="path840" />
    <g
       id="g848"
       inkscape:export-filename="/home/z/devel/lato/art/inkscape/g1493.png"
       inkscape:export-xdpi="164.28603"
       inkscape:export-ydpi="164.28603">
      <g
         id="g1128">
        <path
           style="fill:#555152;fill-opacity:1;stroke:none;stroke-width:0.264583px;stroke-linecap:butt;stroke-linejoin:miter;stroke-opacity:1"
           d="M 27.918568,0.09374728 29.704495,13.9497 l -2.859685,6.362998 7.643421,1.744435 -2.121525,1.45584 -0.273888,1.648324 -3.365447,8.206693 6.297085,15.214108 6.435739,6.384007 -1.90626,24.225634 L 6.256119,79.046552 16.306774,66.80741 18.838739,52.85692 6.9680224,43.481405 11.875443,35.167308 8.6838339,26.729528 19.170924,9.8032868 23.381149,8.6313146 24.484802,0.06541345 Z"
           id="path842"
           sodipodi:nodetypes="cccccccccccccccccccc"
           inkscape:export-filename="/home/z/devel/lato/art/inkscape/path842.png"
           inkscape:export-xdpi="164.28603"
           inkscape:export-ydpi="164.28603" />
        <path
           style="fill:#ffffff;fill-opacity:1;stroke:none;stroke-width:0.264583px;stroke-linecap:butt;stroke-linejoin:miter;stroke-opacity:1"
           d="m 29.704495,13.9497 -2.859685,6.362998 c 0,0 8.795438,2.576343 9.179091,2.031716 C 36.407555,21.799787 29.704495,13.9497 29.704495,13.9497 Z"
           id="path844" />
        <path
           style="fill:#ffffff;fill-opacity:1;stroke:none;stroke-width:0.264583px;stroke-linecap:butt;stroke-linejoin:miter;stroke-opacity:1"
           d="m 35.024456,48.582098 6.507701,6.330886 -6.335438,3.997857 z"
           id="path846"
           sodipodi:nodetypes="cccc" />
      </g>
    </g>
  </g>
  <g
     inkscape:groupmode="layer"
     id="layer5"
     inkscape:label="drawR"
     style="display:none"
     sodipodi:insensitive="true">
    <g
       id="g1951"
       inkscape:export-filename="/home/z/devel/lato/art/inkscape/g1951.png"
       inkscape:export-xdpi="164.28603"
       inkscape:export-ydpi="164.28603">
      <path
         style="fill:#555152;fill-opacity:1;stroke:none;stroke-width:0.264583px;stroke-linecap:butt;stroke-linejoin:miter;stroke-opacity:1"
         d="m 27.918568,0.09374728 7.35161,9.92285072 5.504831,13.831531 -6.685992,6.24194 0.254982,8.388937 -3.707088,3.503837 8.106643,7.885277 2.432704,28.692445 c 0,0 -26.375416,0.448646 -26.039291,-0.03506 C 15.473091,78.041799 14.55597,52.536107 14.55597,52.536107 l 4.58285,-8.762613 -0.72083,-3.51014 -2.759899,-2.128615 8.050974,-3.25936 1.842384,-9.789893 0.83716,-2.350772 -2.012021,-8.48321 -1.416976,-1.492078 7.226682,1.118665 -2.631752,-6.5494423 z"
         id="path65557"
         sodipodi:nodetypes="ccccccccscccccccccccc" />
      <path
         style="fill:#ffffff;fill-opacity:1;stroke:none;stroke-width:0.264583px;stroke-linecap:butt;stroke-linejoin:miter;stroke-opacity:1"
         d="m 27.554542,7.3286486 2.774474,6.8845184 -8.495881,-1.704192 5.721407,-5.1803264"
         id="path79972" />
      <path
         style="fill:#fffffe;fill-opacity:1;stroke:none;stroke-width:0.264583px;stroke-linecap:butt;stroke-linejoin:miter;stroke-opacity:1"
         d="m 25.551449,25.085486 -1.842384,9.789892 -8.050974,3.25936 z"
         id="path101335" />
    </g>
  </g>
</svg>
